<svg xmlns="http://www.w3.org/2000/svg" version="1.1" xmlns:xlink="http://www.w3.org/1999/xlink" width="32" height="32"><svg xmlns="http://www.w3.org/2000/svg" version="1.1" xmlns:xlink="http://www.w3.org/1999/xlink" width="32" height="32"><svg xmlns="http://www.w3.org/2000/svg" viewBox="0 0 32 32" fill="#F59E0B" shape-rendering="crispEdges"><rect x="0" y="8" width="10" height="16"></rect><path d="M10 8h1v1h-1zM10 10h1v1h-1zM10 12h1v1h-1zM10 14h1v1h-1zM10 16h1v1h-1zM10 18h1v1h-1zM10 20h1v1h-1zM10 22h1v1h-1z"></path><path d="M11 9h1v1h-1zM11 11h1v1h-1zM11 13h1v1h-1zM11 15h1v1h-1zM11 17h1v1h-1zM11 19h1v1h-1zM11 21h1v1h-1zM11 23h1v1h-1z"></path><path d="M12 8h1v1h-1zM12 10h1v1h-1zM12 12h1v1h-1zM12 14h1v1h-1zM12 16h1v1h-1zM12 18h1v1h-1zM12 20h1v1h-1zM12 22h1v1h-1z"></path><path d="M14 9h1v1h-1zM14 13h1v1h-1zM14 17h1v1h-1zM14 21h1v1h-1z"></path><path d="M15 11h1v1h-1zM15 15h1v1h-1zM15 19h1v1h-1zM15 23h1v1h-1z"></path><path d="M16 8h1v1h-1zM16 16h1v1h-1zM16 24h1v1h-1z"></path><rect x="18" y="10" width="1" height="1"></rect><rect x="18" y="18" width="1" height="1"></rect><rect x="19" y="14" width="1" height="1"></rect><rect x="20" y="22" width="1" height="1"></rect><rect x="22" y="12" width="1" height="1"></rect></svg></svg><style>@media (prefers-color-scheme: light) { :root { filter: none; } }
@media (prefers-color-scheme: dark) { :root { filter: none; } }
</style></svg>